<?xml version="1.0" encoding="UTF-8" standalone="no"?>
<!-- Created with Inkscape (http://www.inkscape.org/) -->

<svg
   version="1.1"
   id="svg2"
   width="643.83997"
   height="168"
   viewBox="0 0 643.83997 168"
   xmlns="http://www.w3.org/2000/svg"
   xmlns:svg="http://www.w3.org/2000/svg">
  <defs
     id="defs6">
    <clipPath
       clipPathUnits="userSpaceOnUse"
       id="clipPath16">
      <path
         d="M 0,0 H 2012.4999 V 524.86957 H 0 Z"
         clip-rule="evenodd"
         id="path14" />
    </clipPath>
    <clipPath
       clipPathUnits="userSpaceOnUse"
       id="clipPath28">
      <path
         d="M 0,0 H 2012.4999 V 518.87109 H 0 Z"
         clip-rule="evenodd"
         id="path26" />
    </clipPath>
  </defs>
  <g
     id="g8"
     transform="matrix(0.31999998,0,0,0.31999998,0,4.2e-6)">
    <g
       id="g10">
      <g
         id="g12"
         clip-path="url(#clipPath16)">
        <g
           id="g18"
           transform="scale(2.9992547)">
          <path
             d="M 0,0 H 671 V 175 H 0 Z"
             style="fill:#ffffff;fill-opacity:1;fill-rule:nonzero;stroke:none"
             id="path20" />
        </g>
      </g>
    </g>
    <g
       id="g22">
      <g
         id="g24"
         clip-path="url(#clipPath28)">
        <g
           id="g30"
           transform="matrix(2.9992547,0,0,2.9992547,1.4996273,1.4996273)">
          <path
             d="M 49,76 H 88 V 96 H 49 Z"
             style="fill:none;stroke:#000000;stroke-width:1;stroke-linecap:butt;stroke-linejoin:miter;stroke-miterlimit:10;stroke-dasharray:none;stroke-opacity:1"
             id="path32" />
        </g>
        <g
           id="g34"
           transform="scale(2.9992547)">
          <text
             xml:space="preserve"
             transform="translate(53.109375,90)"
             style="font-variant:normal;font-weight:normal;font-size:12px;font-family:Arial;-inkscape-font-specification:ArialMT;writing-mode:lr-tb;fill:#b3b3b3;fill-opacity:1;fill-rule:nonzero;stroke:none"
             id="text38"><tspan
               x="0"
               y="0"
               id="tspan36">[</tspan></text>
          <text
             xml:space="preserve"
             transform="translate(56.4375,90)"
             style="font-variant:normal;font-weight:normal;font-size:12px;font-family:Arial;-inkscape-font-specification:ArialMT;writing-mode:lr-tb;fill:#000000;fill-opacity:1;fill-rule:nonzero;stroke:none"
             id="text42"><tspan
               x="0 6.6738281 13.347656 20.021484"
               y="0"
               id="tspan40">6644</tspan></text>
          <text
             xml:space="preserve"
             transform="translate(83.125,90)"
             style="font-variant:normal;font-weight:normal;font-size:12px;font-family:Arial;-inkscape-font-specification:ArialMT;writing-mode:lr-tb;fill:#b3b3b3;fill-opacity:1;fill-rule:nonzero;stroke:none"
             id="text46"><tspan
               x="0"
               y="0"
               id="tspan44">]</tspan></text>
          <text
             xml:space="preserve"
             transform="translate(89.787109,90)"
             style="font-variant:normal;font-weight:normal;font-size:12px;font-family:Arial;-inkscape-font-specification:ArialMT;writing-mode:lr-tb;fill:#000000;fill-opacity:1;fill-rule:nonzero;stroke:none"
             id="text50"><tspan
               x="0 6.6738281 13.347656 20.021484 26.695312 30.691406 37.365234 44.039062 48.035156 54.708984 61.382812 64.716797 71.390625 78.064453 81.398438 88.072266 94.746094 98.080078 104.75391 111.42773 114.76172 121.43555 128.10938 134.7832"
               y="0"
               id="tspan48">2020-12-21 12:35:45.136 </tspan></text>
          <text
             xml:space="preserve"
             transform="translate(227.89063,90)"
             style="font-variant:normal;font-weight:normal;font-size:12px;font-family:Arial;-inkscape-font-specification:ArialMT;writing-mode:lr-tb;fill:#b3b3b3;fill-opacity:1;fill-rule:nonzero;stroke:none"
             id="text54"><tspan
               x="0 3.3339844 12 19.330078 28.664062 31.998047"
               y="0"
               id="tspan52">INFO &lt;</tspan></text>
          <text
             xml:space="preserve"
             transform="translate(266.89063,90)"
             style="font-variant:normal;font-weight:normal;font-size:12px;font-family:Arial;-inkscape-font-specification:ArialMT;writing-mode:lr-tb;fill:#000000;fill-opacity:1;fill-rule:nonzero;stroke:none"
             id="text58"><tspan
               x="0 8.6660156 18.662109 27.328125 31.324219 39.328125 45.767578 53.771484 62.220703"
               y="0"
               id="tspan56">CMD-START</tspan></text>
          <text
             xml:space="preserve"
             transform="translate(336.4375,90)"
             style="font-variant:normal;font-weight:normal;font-size:12px;font-family:Arial;-inkscape-font-specification:ArialMT;writing-mode:lr-tb;fill:#b3b3b3;fill-opacity:1;fill-rule:nonzero;stroke:none"
             id="text62"><tspan
               x="0 7.0078125 10.341797 17.349609 25.353516 28.6875 35.361328 38.695312 45.369141 51.369141 54.703125 61.376953 67.376953 74.050781"
               y="0"
               id="tspan60">&gt;:&lt;Status 0x2|</tspan></text>
          <text
             xml:space="preserve"
             transform="translate(413.59375,90)"
             style="font-variant:normal;font-weight:normal;font-size:12px;font-family:Arial;-inkscape-font-specification:ArialMT;writing-mode:lr-tb;fill:#000000;fill-opacity:1;fill-rule:nonzero;stroke:none"
             id="text66"><tspan
               x="0 3.3339844 12 18.673828 27.339844 35.34375 44.677734 51.351562 60.017578 70.013672 78.679688 85.353516 94.6875 102.69141 110.02148 118.02539 126.0293 134.47852 142.48242 150.48633 158.93555 166.26562 169.59961 179.5957 187.59961 195.60352 202.93359 211.59961"
               y="0"
               id="tspan64">ID_REQ_CMD_GETSERVERTIMESTR </tspan></text>
          <text
             xml:space="preserve"
             transform="translate(628.51563,90)"
             style="font-variant:normal;font-weight:normal;font-size:12px;font-family:Arial;-inkscape-font-specification:ArialMT;writing-mode:lr-tb;fill:#b3b3b3;fill-opacity:1;fill-rule:nonzero;stroke:none"
             id="text70"><tspan
               x="0 6.6738281 12.673828 19.347656"
               y="0"
               id="tspan68">0x6&gt;</tspan></text>
        </g>
        <g
           id="g72"
           transform="matrix(2.9992547,0,0,2.9992547,1.4996273,1.4996273)">
          <path
             d="M 68.5,69.629997 V 37.369999"
             style="fill:none;stroke:#000000;stroke-width:1;stroke-linecap:butt;stroke-linejoin:miter;stroke-miterlimit:10;stroke-dasharray:none;stroke-opacity:1"
             id="path74" />
          <path
             d="m 68.5,74.879997 -3.5,-7 3.5,1.75 3.5,-1.75 z"
             style="fill:#000000;fill-opacity:1;fill-rule:nonzero;stroke:none"
             id="path76" />
          <path
             d="m 68.5,74.879997 -3.5,-7 3.5,1.75 3.5,-1.75 z"
             style="fill:none;stroke:#000000;stroke-width:1;stroke-linecap:butt;stroke-linejoin:miter;stroke-miterlimit:10;stroke-dasharray:none;stroke-opacity:1"
             id="path78" />
          <path
             d="m 68.5,32.119999 3.5,7 -3.5,-1.75 -3.5,1.75 z"
             style="fill:#000000;fill-opacity:1;fill-rule:nonzero;stroke:none"
             id="path80" />
          <path
             d="m 68.5,32.119999 3.5,7 -3.5,-1.75 -3.5,1.75 z"
             style="fill:none;stroke:#000000;stroke-width:1;stroke-linecap:butt;stroke-linejoin:miter;stroke-miterlimit:10;stroke-dasharray:none;stroke-opacity:1"
             id="path82" />
        </g>
        <g
           id="g84"
           transform="scale(2.9992547)">
          <text
             xml:space="preserve"
             transform="translate(28.46875,13)"
             style="font-variant:normal;font-weight:normal;font-size:12px;font-family:Arial;-inkscape-font-specification:ArialMT;writing-mode:lr-tb;fill:#000000;fill-opacity:1;fill-rule:nonzero;stroke:none"
             id="text88"><tspan
               x="0 2.6660156 9.3398438 12.673828 19.347656 22.681641 26.015625 29.349609 36.023438 42.697266 46.03125 49.365234 56.039062 60.035156 66.708984 73.382812"
               y="0"
               id="tspan86">id of the thread</tspan></text>
          <text
             xml:space="preserve"
             transform="translate(7.796875,28)"
             style="font-variant:normal;font-weight:normal;font-size:12px;font-family:Arial;-inkscape-font-specification:ArialMT;writing-mode:lr-tb;fill:#000000;fill-opacity:1;fill-rule:nonzero;stroke:none"
             id="text92"><tspan
               x="0 6.6738281 10.669922 17.34375 23.34375 30.017578 36.017578 42.017578 44.683594 51.357422 58.03125 61.365234 64.699219 71.373047 78.046875 81.380859 85.376953 92.050781 98.724609 105.39844 112.07227 118.07227"
               y="0"
               id="tspan90">processing the request</tspan></text>
        </g>
        <g
           id="g94"
           transform="matrix(2.9992547,0,0,2.9992547,1.4996273,1.4996273)">
          <path
             d="m 156.36,102.37 -0.72,32.26"
             style="fill:none;stroke:#000000;stroke-width:1;stroke-linecap:butt;stroke-linejoin:miter;stroke-miterlimit:10;stroke-dasharray:none;stroke-opacity:1"
             id="path96" />
          <path
             d="m 156.48,97.120003 3.34001,7.069997 -3.46001,-1.82 -3.53999,1.67 z"
             style="fill:#000000;fill-opacity:1;fill-rule:nonzero;stroke:none"
             id="path98" />
          <path
             d="m 156.48,97.120003 3.34001,7.069997 -3.46001,-1.82 -3.53999,1.67 z"
             style="fill:none;stroke:#000000;stroke-width:1;stroke-linecap:butt;stroke-linejoin:miter;stroke-miterlimit:10;stroke-dasharray:none;stroke-opacity:1"
             id="path100" />
          <path
             d="m 155.52,139.88 -3.34001,-7.07 3.46001,1.82 3.53999,-1.66999 z"
             style="fill:#000000;fill-opacity:1;fill-rule:nonzero;stroke:none"
             id="path102" />
          <path
             d="m 155.52,139.88 -3.34001,-7.07 3.46001,1.82 3.53999,-1.66999 z"
             style="fill:none;stroke:#000000;stroke-width:1;stroke-linecap:butt;stroke-linejoin:miter;stroke-miterlimit:10;stroke-dasharray:none;stroke-opacity:1"
             id="path104" />
        </g>
        <g
           id="g106"
           transform="scale(2.9992547)">
          <text
             xml:space="preserve"
             transform="translate(115.48438,153)"
             style="font-variant:normal;font-weight:normal;font-size:12px;font-family:Arial;-inkscape-font-specification:ArialMT;writing-mode:lr-tb;fill:#000000;fill-opacity:1;fill-rule:nonzero;stroke:none"
             id="text110"><tspan
               x="0 3.3339844 6 15.996094 22.669922 28.669922 32.003906 38.677734 48.673828 55.347656 58.681641 67.347656 70.013672 73.347656"
               y="0"
               id="tspan108">timestamp with</tspan></text>
          <text
             xml:space="preserve"
             transform="translate(100.14063,168)"
             style="font-variant:normal;font-weight:normal;font-size:12px;font-family:Arial;-inkscape-font-specification:ArialMT;writing-mode:lr-tb;fill:#000000;fill-opacity:1;fill-rule:nonzero;stroke:none"
             id="text114"><tspan
               x="0 9.9960938 12.662109 15.328125 17.994141 20.660156 26.660156 33.333984 39.333984 46.007812 52.681641 59.355469 62.689453 69.363281 73.359375 80.033203 86.033203 88.699219 94.699219 97.365234 104.03906"
               y="0"
               id="tspan112">millisecond precision</tspan></text>
          <text
             xml:space="preserve"
             transform="translate(184.9375,20)"
             style="font-variant:normal;font-weight:normal;font-size:12px;font-family:Arial;-inkscape-font-specification:ArialMT;writing-mode:lr-tb;fill:#000000;fill-opacity:1;fill-rule:nonzero;stroke:none"
             id="text118"><tspan
               x="0 2.6660156 6 9.3339844 13.330078 20.003906 26.677734 33.351562 40.025391 46.025391 49.359375 52.693359 59.367188 63.363281 70.037109 76.037109 82.710938 88.710938 94.710938 97.376953 104.05078 110.72461 114.05859 122.72461 129.39844 135.39844 138.73242 144.73242 148.06641 154.74023 158.73633 162.07031 168.74414 175.41797 178.75195 185.42578 189.42188 192.75586 196.08984 198.75586 205.42969 208.0957 214.0957 220.76953 227.44336"
               y="0"
               id="tspan116">if request processing was started or finished</tspan></text>
        </g>
        <g
           id="g120"
           transform="matrix(2.9992547,0,0,2.9992547,1.4996273,1.4996273)">
          <path
             d="m 519.5,102.37 v 32.26"
             style="fill:none;stroke:#000000;stroke-width:1;stroke-linecap:butt;stroke-linejoin:miter;stroke-miterlimit:10;stroke-dasharray:none;stroke-opacity:1"
             id="path122" />
          <path
             d="m 519.5,97.120003 3.5,6.999997 -3.5,-1.75 -3.5,1.75 z"
             style="fill:#000000;fill-opacity:1;fill-rule:nonzero;stroke:none"
             id="path124" />
          <path
             d="m 519.5,97.120003 3.5,6.999997 -3.5,-1.75 -3.5,1.75 z"
             style="fill:none;stroke:#000000;stroke-width:1;stroke-linecap:butt;stroke-linejoin:miter;stroke-miterlimit:10;stroke-dasharray:none;stroke-opacity:1"
             id="path126" />
          <path
             d="m 519.5,139.88 -3.5,-7 3.5,1.75 3.5,-1.75 z"
             style="fill:#000000;fill-opacity:1;fill-rule:nonzero;stroke:none"
             id="path128" />
          <path
             d="m 519.5,139.88 -3.5,-7 3.5,1.75 3.5,-1.75 z"
             style="fill:none;stroke:#000000;stroke-width:1;stroke-linecap:butt;stroke-linejoin:miter;stroke-miterlimit:10;stroke-dasharray:none;stroke-opacity:1"
             id="path130" />
          <path
             d="M 301.5,69.629997 V 37.369999"
             style="fill:none;stroke:#000000;stroke-width:1;stroke-linecap:butt;stroke-linejoin:miter;stroke-miterlimit:10;stroke-dasharray:none;stroke-opacity:1"
             id="path132" />
          <path
             d="m 301.5,74.879997 -3.5,-7 3.5,1.75 3.5,-1.75 z"
             style="fill:#000000;fill-opacity:1;fill-rule:nonzero;stroke:none"
             id="path134" />
          <path
             d="m 301.5,74.879997 -3.5,-7 3.5,1.75 3.5,-1.75 z"
             style="fill:none;stroke:#000000;stroke-width:1;stroke-linecap:butt;stroke-linejoin:miter;stroke-miterlimit:10;stroke-dasharray:none;stroke-opacity:1"
             id="path136" />
          <path
             d="m 301.5,32.119999 3.5,7 -3.5,-1.75 -3.5,1.75 z"
             style="fill:#000000;fill-opacity:1;fill-rule:nonzero;stroke:none"
             id="path138" />
          <path
             d="m 301.5,32.119999 3.5,7 -3.5,-1.75 -3.5,1.75 z"
             style="fill:none;stroke:#000000;stroke-width:1;stroke-linecap:butt;stroke-linejoin:miter;stroke-miterlimit:10;stroke-dasharray:none;stroke-opacity:1"
             id="path140" />
        </g>
        <g
           id="g142"
           transform="scale(2.9992547)">
          <text
             xml:space="preserve"
             transform="translate(480.29688,160)"
             style="font-variant:normal;font-weight:normal;font-size:12px;font-family:Arial;-inkscape-font-specification:ArialMT;writing-mode:lr-tb;fill:#000000;fill-opacity:1;fill-rule:nonzero;stroke:none"
             id="text146"><tspan
               x="0 3.3339844 9.3339844 16.007812 22.681641 26.015625 32.689453 36.023438 39.357422 43.353516 50.027344 56.701172 63.375 70.048828 76.048828"
               y="0"
               id="tspan144">type of request</tspan></text>
        </g>
        <g
           id="g148"
           transform="matrix(2.9992547,0,0,2.9992547,1.4996273,1.4996273)">
          <path
             d="M 88,76 H 225 V 96 H 88 Z"
             style="fill:none;stroke:#000000;stroke-width:1;stroke-linecap:butt;stroke-linejoin:miter;stroke-miterlimit:10;stroke-dasharray:none;stroke-opacity:1"
             id="path150" />
          <path
             d="m 260,76 h 83 v 20 h -83 z"
             style="fill:none;stroke:#000000;stroke-width:1;stroke-linecap:butt;stroke-linejoin:miter;stroke-miterlimit:10;stroke-dasharray:none;stroke-opacity:1"
             id="path152" />
          <path
             d="M 412,76 H 627 V 96 H 412 Z"
             style="fill:none;stroke:#000000;stroke-width:1;stroke-linecap:butt;stroke-linejoin:miter;stroke-miterlimit:10;stroke-dasharray:none;stroke-opacity:1"
             id="path154" />
        </g>
      </g>
    </g>
  </g>
</svg>
